PathFileType	4	(X/Y/Z)	C:/Users/Carlo/Dropbox/Carlos/SARAH/CongressoMarcha2025/WorkshopOpenSim/C3D/Caso02/Static.c3d.trc
DataRate	CameraRate	NumFrames	NumMarkers	Units	OrigDataRate	OrigDataStartFrame	OrigNumFrames
100.000000	100.000000	2	141	mm	100.000000	0	100
Frame#	Time	LFHD			RFHD			LBHD			RBHD			C7			T10			CLAV			STRN			RBAK			LSHO			LUPA			LELB			LFRM			LWRA			LWRB			LFIN			RSHO			RUPA			RELB			RFRM			RWRA			RWRB			RFIN			LASI			RASI			LPSI			RPSI			LTHI			LKNE			LTIB			LANK			LHEE			LTOE			RTHI			RKNE			RTIB			RANK			RHEE			RTOE			PELO			PELA			PELL			PELP			LFEO			LFEA			LFEL			LFEP			LTIO			LTIA			LTIL			LTIP			LFOO			LFOA			LFOL			LFOP			LTOO			LTOA			LTOL			LTOP			RFEO			RFEA			RFEL			RFEP			RTIO			RTIA			RTIL			RTIP			RFOO			RFOA			RFOL			RFOP			RTOO			RTOA			RTOL			RTOP			HEDO			HEDA			HEDL			HEDP			LCLO			LCLA			LCLL			LCLP			RCLO			RCLA			RCLL			RCLP			TRXO			TRXA			TRXL			TRXP			LHUO			LHUA			LHUL			LHUP			LRAO			LRAA			LRAL			LRAP			LHNO			LHNA			LHNL			LHNP			RHUO			RHUA			RHUL			RHUP			RRAO			RRAA			RRAL			RRAP			RHNO			RHNA			RHNL			RHNP			LHipAngles			LKneeAngles			LAbsAnkleAngle			LAnkleAngles			RHipAngles			RKneeAngles			RAnkleAngles			RAbsAnkleAngle			LPelvisAngles			RPelvisAngles			LFootProgressAngles			RFootProgressAngles			RNeckAngles			LNeckAngles			RSpineAngles			LSpineAngles			LShoulderAngles			LElbowAngles			LWristAngles			RShoulderAngles			RElbowAngles			RWristAngles			RThoraxAngles			LThoraxAngles			RHeadAngles			LHeadAngles			
		X1	Y1	Z1	X2	Y2	Z2	X3	Y3	Z3	X4	Y4	Z4	X5	Y5	Z5	X6	Y6	Z6	X7	Y7	Z7	X8	Y8	Z8	X9	Y9	Z9	X10	Y10	Z10	X11	Y11	Z11	X12	Y12	Z12	X13	Y13	Z13	X14	Y14	Z14	X15	Y15	Z15	X16	Y16	Z16	X17	Y17	Z17	X18	Y18	Z18	X19	Y19	Z19	X20	Y20	Z20	X21	Y21	Z21	X22	Y22	Z22	X23	Y23	Z23	X24	Y24	Z24	X25	Y25	Z25	X26	Y26	Z26	X27	Y27	Z27	X28	Y28	Z28	X29	Y29	Z29	X30	Y30	Z30	X31	Y31	Z31	X32	Y32	Z32	X33	Y33	Z33	X34	Y34	Z34	X35	Y35	Z35	X36	Y36	Z36	X37	Y37	Z37	X38	Y38	Z38	X39	Y39	Z39	X40	Y40	Z40	X41	Y41	Z41	X42	Y42	Z42	X43	Y43	Z43	X44	Y44	Z44	X45	Y45	Z45	X46	Y46	Z46	X47	Y47	Z47	X48	Y48	Z48	X49	Y49	Z49	X50	Y50	Z50	X51	Y51	Z51	X52	Y52	Z52	X53	Y53	Z53	X54	Y54	Z54	X55	Y55	Z55	X56	Y56	Z56	X57	Y57	Z57	X58	Y58	Z58	X59	Y59	Z59	X60	Y60	Z60	X61	Y61	Z61	X62	Y62	Z62	X63	Y63	Z63	X64	Y64	Z64	X65	Y65	Z65	X66	Y66	Z66	X67	Y67	Z67	X68	Y68	Z68	X69	Y69	Z69	X70	Y70	Z70	X71	Y71	Z71	X72	Y72	Z72	X73	Y73	Z73	X74	Y74	Z74	X75	Y75	Z75	X76	Y76	Z76	X77	Y77	Z77	X78	Y78	Z78	X79	Y79	Z79	X80	Y80	Z80	X81	Y81	Z81	X82	Y82	Z82	X83	Y83	Z83	X84	Y84	Z84	X85	Y85	Z85	X86	Y86	Z86	X87	Y87	Z87	X88	Y88	Z88	X89	Y89	Z89	X90	Y90	Z90	X91	Y91	Z91	X92	Y92	Z92	X93	Y93	Z93	X94	Y94	Z94	X95	Y95	Z95	X96	Y96	Z96	X97	Y97	Z97	X98	Y98	Z98	X99	Y99	Z99	X100	Y100	Z100	X101	Y101	Z101	X102	Y102	Z102	X103	Y103	Z103	X104	Y104	Z104	X105	Y105	Z105	X106	Y106	Z106	X107	Y107	Z107	X108	Y108	Z108	X109	Y109	Z109	X110	Y110	Z110	X111	Y111	Z111	X112	Y112	Z112	X113	Y113	Z113	X114	Y114	Z114	X115	Y115	Z115	X116	Y116	Z116	X117	Y117	Z117	X118	Y118	Z118	X119	Y119	Z119	X120	Y120	Z120	X121	Y121	Z121	X122	Y122	Z122	X123	Y123	Z123	X124	Y124	Z124	X125	Y125	Z125	X126	Y126	Z126	X127	Y127	Z127	X128	Y128	Z128	X129	Y129	Z129	X130	Y130	Z130	X131	Y131	Z131	X132	Y132	Z132	X133	Y133	Z133	X134	Y134	Z134	X135	Y135	Z135	X136	Y136	Z136	X137	Y137	Z137	X138	Y138	Z138	X139	Y139	Z139	X140	Y140	Z140	X141	Y141	Z141	

1	0	-353.1834716796876	1746.048828125001	379.452117919922	-478.998718261719	1734.815429687501	358.3592834472657	-328.1450195312501	1693.836791992188	232.9954528808595	-469.6712951660159	1693.126220703126	222.7617492675782	-404.7188415527346	1518.370239257813	210.1871185302736	-404.2666320800784	1256.287231445313	162.4944000244141	-411.7352294921877	1466.808227539063	353.5535278320314	-409.6096496582034	1287.237548828125	404.3321838378909	-453.9044494628909	1350.539672851563	139.2858276367188	-226.6935577392579	1502.167114257813	257.7037658691407	-95.37416076660159	1456.816040039063	268.9701232910157	57.07241439819339	1405.691284179688	291.5043029785157	36.48588180541994	1411.340576171875	423.7949829101565	-73.18362426757815	1395.49267578125	521.1655883789065	-3.578023910522463	1392.009887695313	554.092712402344	-55.76007843017581	1419.350341796875	615.8758544921877	-590.3536376953127	1504.190795898438	245.7590484619142	-759.958435058594	1435.12841796875	225.150848388672	-867.1735839843755	1397.98876953125	240.7052612304689	-838.2598266601567	1440.673828125	376.3657531738282	-786.706909179688	1439.616577148438	491.2705383300784	-861.9931640625005	1430.225830078125	501.3462829589846	-817.8363647460942	1467.74267578125	572.5894775390627	-299.6912231445314	1027.33740234375	358.8599853515626	-516.9851684570315	1030.849243164063	359.4049682617189	-344.0572204589845	1034.016723632813	169.4759979248047	-482.0284118652346	1030.420166015625	168.2257232666016	-211.3469238281251	758.0247802734377	318.2764282226564	-235.8096618652345	523.5506591796877	286.9844360351564	-201.3386688232423	317.366912841797	241.7502746582032	-208.5975646972657	79.6248474121094	220.5774078369142	-250.8418579101564	38.16333770751955	169.1958770751954	-230.7312316894532	44.52972412109376	365.9456787109376	-588.675231933594	668.4406738281252	313.5513000488282	-563.2755126953127	513.168640136719	297.8453063964845	-593.0706176757815	267.4158325195314	248.3784027099611	-586.6785278320315	83.4545822143555	220.9403228759767	-533.1378173828127	46.67596435546876	165.7353515625001	-570.5410766601565	42.86616516113283	363.6128845214845	-410.0680236816409	929.9279785156255	308.4369201660157	-409.7757873535159	927.8408813476567	438.3992309570315	-280.1059875488282	927.8275756835942	308.1109619140626	-407.9626464843752	1059.873657226563	310.5190429687501	-294.447479248047	517.4615478515627	273.3911437988282	-383.3942260742189	472.8695068359377	677.0585937500002	108.5049133300782	559.3057861328127	366.8027343750001	-345.0947875976564	928.6889648437505	307.6583557128907	-252.9749908447267	74.85647583007815	226.3141174316407	-194.502166748047	35.68716049194337	646.0845947265627	166.7656402587891	119.9579010009766	172.0539245605469	-292.4621582031251	496.2732849121096	271.1375122070314	-225.5557098388673	68.19667816162112	360.0369873046876	-246.4549407958986	257.8829650878907	356.0353393554689	-36.82153320312501	88.57012176513675	340.0864562988282	-244.9547729492189	62.05551910400393	170.2485961914063	-219.0893402099611	70.24371337890628	423.2998046875002	-226.0557556152345	133.4724731445313	421.9659118652346	-156.1779479980469	77.03485870361331	416.6496276855471	-225.5556945800782	68.19666290283206	360.0369873046876	-504.0606384277346	509.7500000000002	285.9224243164064	-422.3270263671877	481.2327575683596	700.0280761718752	-89.98992919921878	485.8448486328127	202.5494689941407	-475.0413208007815	931.167114257813	309.2155151367189	-541.8518676757815	79.50905609130862	220.9937896728517	-547.7517700195315	18.04232788085938	631.7288818359377	-128.1009826660157	43.09176635742189	221.4871673583986	-505.912292480469	488.6690368652346	282.7410278320314	-580.977722167969	65.47396087646487	353.8356323242189	-563.9517822265627	259.0062561035157	360.7800598144532	-390.7154846191409	47.45767211914064	389.4525451660159	-544.8769531250002	69.1510925292969	162.8485870361329	-593.0112915039065	64.24824523925784	417.4979553222659	-587.3359985351565	128.759017944336	419.8127746582034	-529.5905761718752	58.24283599853518	429.3702697753909	-580.9776611328127	65.47396087646487	353.8356323242189	-393.7957153320315	1615.792968750001	210.4716796875001	-419.9075012207034	1687.140747070313	424.7814941406252	-167.924545288086	1625.191650390626	234.8631134033204	-395.0005798339846	1831.483032226563	138.517562866211	-230.2357025146486	1444.77978515625	265.3283996582032	-146.9750366210938	1463.649047851563	446.0289001464846	-218.0305175781251	1642.521606445313	239.0559082031251	-411.5083007812502	1466.7607421875	346.5573730468751	-587.9511718750002	1446.76611328125	253.5460662841798	-682.724304199219	1466.602416992188	429.0670471191409	-579.6478271484377	1248.297607421875	280.4591369628907	-411.5081787109377	1466.760620117188	346.5573730468751	-411.508239746094	1466.760620117188	346.5573730468751	-417.9999084472659	1468.120483398438	546.6024169921877	-611.5543212890627	1465.547729492188	340.0739135742189	-410.3401184082034	1266.6142578125	347.9558410644532	45.25884246826173	1364.095336914063	286.7656555175782	66.42596435546878	1360.100463867188	-0.2931823730468751	-35.49695587158205	1087.796875	284.6560363769532	-230.2356262207032	1444.77978515625	265.3283996582032	-39.0164031982422	1386.807006835938	538.2381591796877	185.3005676269532	1320.624633789063	619.3901367187502	-108.4638671875001	1149.198852539063	536.4239501953127	39.35955810546876	1365.685180664063	304.3687133789064	-76.90509033203128	1402.230590820313	697.2813110351565	-62.84278106689456	1565.371337890626	684.810241699219	82.26417541503909	1391.488891601563	736.2416992187502	-39.01645660400392	1386.806884765625	538.2381591796877	-853.480102539063	1357.027954101563	245.8965148925782	-826.2521362304692	1299.74365234375	-27.22283935546876	-939.3292846679692	1616.416870117188	182.9335632324219	-587.9511718750002	1446.76611328125	253.5460052490236	-823.2627563476567	1428.283325195313	498.2467041015627	-1055.253540039063	1362.737670898438	544.5339965820315	-898.422729492188	1655.375488281251	443.1232910156252	-851.3648071289067	1362.015869140625	263.5610961914064	-805.2155151367192	1458.463134765625	655.4625244140627	-828.4788208007817	1615.489868164063	627.989440917969	-646.828552246094	1478.087890625	633.5136718750002	-823.2626342773442	1428.283325195313	498.246765136719	-7.931901454925541	12.51465797424317	-3.835682630538942	1.913758993148805	-20.22277832031251	0.9117361307144169	0	0	7.304179668426517	1.716218855397912e-13	1.324850201606751	7.30613994598389	-3.000820875167848	11.07360076904297	-2.250277757644654	0.01550735253840686	-11.5617208480835	5.499186038970949	1.672853987223691e-14	-10.49556255340577	6.502319812774662	0	0	6.3930778503418	-0.9280997514724736	-0.128829374909401	0.917976558208466	0.9280997514724736	0.128829374909401	0.917976558208466	-6.318826198577884	-5.833142280578615	-91.85331726074222	-5.113588333129885	-10.70195198059082	-88.89700317382815	1.993510007858277	4.319705009460451	-17.94130897521973	-1.993510007858277	-4.319705009460451	-17.94130897521973	1.304510831832886	1.979764223098756	-1.276821374893189	-1.304510831832886	-1.979764223098756	-1.276821374893189	73.34393310546878	0.2722211480140687	2.377604007720948	1.540581195125517e-15	-5.32842324950378e-13	104.8657379150391	1.863631606101991	102.1793518066407	-4.781309604644777	71.68023681640628	-12.01796817779542	0.07293253391981128	1.590277359294756e-15	2.39575286692384e-12	102.7616500854493	-4.596428394317629	99.10501861572271	-1.616781115531922	-0.3344049155712129	-1.858640670776368	-0.4003324806690218	0.3344049155712129	1.858640670776368	-0.4003324806690218	-0.3036178946495057	-6.594399452209476	18.44868850708009	0.3036178946495057	6.594399452209476	18.44868850708009	
2	0.01	-353.537322998047	1746.147094726563	379.791717529297	-479.3257141113284	1734.683593750001	358.5406494140626	-328.2191467285157	1694.023193359376	233.3221588134767	-469.7496337890627	1693.038452148438	222.9386749267579	-404.6177673339846	1518.462890625	210.3777770996095	-404.1185302734377	1256.402709960938	162.5274200439454	-411.6490173339846	1466.8154296875	353.7020263671876	-409.5660095214846	1287.220458984375	404.447692871094	-453.8094482421877	1350.684692382813	139.3706970214844	-226.5972900390626	1502.298583984375	258.0014953613282	-95.24209594726565	1456.9765625	269.2828369140626	57.18314743041995	1405.896484375	291.9114685058595	36.66114044189455	1411.658569335938	424.1997375488284	-73.02664947509768	1395.8525390625	521.5798339843752	-3.394981384277346	1392.443603515625	554.466003417969	-55.58589935302737	1419.80322265625	616.2465820312502	-590.6490478515627	1504.401611328125	245.8732147216798	-759.8798828125002	1435.016967773438	225.3659973144532	-867.0753784179692	1397.830078125	240.9530639648439	-838.1977539062505	1440.496337890625	376.6428222656251	-786.624389648438	1439.4697265625	491.5314941406252	-861.9047851562505	1429.976440429688	501.607116699219	-817.8059692382817	1467.510498046875	572.8677978515627	-299.7664489746095	1027.279174804688	358.6961364746095	-517.092468261719	1030.862548828125	359.241424560547	-344.1393432617189	1034.041015625	169.3607482910157	-482.096374511719	1030.558349609375	168.0479888916016	-211.5181732177736	757.9846191406252	318.370330810547	-235.9070892333986	523.5083618164065	287.3114318847657	-201.4048461914064	317.3771972656251	241.9490966796876	-208.6151885986329	79.6440353393555	220.6422271728517	-250.8436431884767	38.16350173950197	169.1921844482422	-230.7891082763673	44.52756500244142	365.9545288085939	-588.8218994140627	668.4915771484377	313.1994018554689	-564.6775512695315	513.5463867187502	297.7062072753907	-593.136413574219	267.4136352539064	248.1802520751954	-586.708679199219	83.42504882812503	220.9021606445314	-533.1672973632815	46.6486053466797	165.7362060546876	-570.556823730469	42.87546920776369	363.6001892089845	-410.1914062500002	929.933471679688	308.2197265625001	-409.9009094238284	927.7761230468755	438.1809082031252	-280.2301025390626	927.7905883789067	307.8936462402345	-408.0434265136721	1059.877319335938	310.3719787597657	-294.530242919922	517.404235839844	273.6616821289064	-383.911102294922	473.2366943359377	677.2864990234377	108.3275451660157	559.3516235351565	367.4628906250001	-345.2186279296876	928.673461914063	307.4410095214845	-252.9939422607423	74.86737823486331	226.3614807128907	-194.6623535156251	35.47974014282228	646.0926513671877	166.7221221923829	120.0431060791016	172.2712860107422	-292.5416564941407	496.2175598144534	271.3971557617189	-225.6113128662111	68.20831298828128	360.0918884277345	-246.5433349609376	257.8909912109376	356.0902709960939	-36.87518310546876	88.61613464355472	340.1953430175782	-244.9556274414064	62.06963729858401	170.2978210449219	-219.1632080078126	70.25453948974612	423.356628417969	-226.1405334472657	133.4820861816407	422.0227661132815	-156.2511596679688	77.05713653564456	416.7244567871096	-225.6113128662111	68.20832061767581	360.0919189453126	-505.4726562500002	509.9433593750002	285.7878723144532	-423.8696899414065	481.2589416503909	699.8255615234377	-91.55065917968753	484.7533874511721	202.4625396728517	-475.164245605469	931.1936035156255	308.9984741210939	-541.871765136719	79.60249328613284	221.1027832031251	-548.9217529296877	18.46454238891602	631.8121337890627	-128.0821838378907	44.32500457763673	222.9542541503907	-507.2563476562502	488.8547363281252	282.6180114746095	-580.9576416015627	65.55185699462893	353.9547729492189	-564.484069824219	259.1368408203126	360.759246826172	-390.644958496094	48.104362487793	389.584655761719	-544.867126464844	69.19390869140628	162.9651336669922	-592.9878540039065	64.33784484863284	417.6179809570315	-587.4967041015627	128.866195678711	419.8861389160159	-529.5502929687502	58.52204132080081	429.4946289062502	-580.9576416015627	65.55185699462893	353.9547729492189	-393.7021179199221	1615.862670898438	210.7257843017579	-420.2122192382815	1687.101440429688	425.0230102539065	-167.879379272461	1625.693237304688	235.3936920166017	-395.2385559082034	1831.569580078126	138.8282928466797	-230.1206665039064	1444.90625	265.5973510742189	-146.9982604980469	1463.722534179688	446.3255920410159	-217.9822998046876	1642.628173828126	239.4290161132814	-411.419860839844	1466.771118164063	346.7059326171876	-588.2891845703127	1446.968017578125	253.6065826416017	-683.1198730468752	1466.762939453125	429.5546875000002	-580.1170654296877	1248.075073242188	280.3873596191407	-411.4197998046877	1466.77099609375	346.7058715820314	-411.4198303222659	1466.770874023438	346.7059326171876	-417.9787292480471	1468.045166015625	546.929138183594	-611.6436767578127	1465.557250976563	340.1547241210939	-410.2485656738284	1266.443969726563	348.0192260742189	45.37902069091798	1364.2939453125	287.2073059082032	66.64170074462893	1360.01171875	0.1620178222656251	-35.32561492919923	1087.981201171875	285.3512268066407	-230.1206970214845	1444.90625	265.5972595214845	-38.8418312072754	1387.203979492188	538.6391601562502	185.4697265625001	1321.142456054688	619.795104980469	-108.2359161376954	1149.616088867188	537.0432128906252	39.48358535766603	1365.897583007813	304.8075256347657	-76.69712829589847	1402.73974609375	697.6661376953127	-62.75215911865237	1565.866455078126	685.049255371094	82.47729492187503	1392.143310546875	736.591735839844	-38.84181976318361	1387.203857421875	538.6391601562502	-853.3068847656255	1356.891479492188	246.1213989257814	-826.2033081054692	1299.817260742188	-26.66430664062501	-939.5344238281255	1615.798706054688	183.3835449218751	-588.289245605469	1446.967895507813	253.6067047119142	-823.168579101563	1428.086059570313	498.5048828125002	-1055.032836914063	1362.085693359375	544.8107910156252	-898.7640991210942	1655.069335937501	443.5028381347659	-851.1972045898442	1361.875244140625	263.7882690429689	-805.184936523438	1458.201293945313	655.7349243164065	-828.6499633789067	1615.207275390626	628.3464355468752	-646.8258056640627	1478.0458984375	633.821228027344	-823.1685180664067	1428.086059570313	498.5049438476565	-7.956071376800541	12.57599163055421	-3.736792564392092	1.932490229606629	-20.25365638732911	1.00518822669983	0	0	7.333333492279056	-2.54263217468534e-13	1.318729758262635	7.335294246673588	-3.157940387725832	11.06090354919434	-2.209630727767945	0.3609960973262788	-11.69322967529297	5.408006668090822	1.852385974644711e-13	-10.31169128417969	6.512439250946048	0	0	6.406810283660892	-0.9468848109245305	-0.1280770897865296	0.9488947987556462	0.9468848109245305	0.1280770897865296	0.9488947987556462	-6.32859563827515	-5.81661891937256	-91.85252380371097	-4.94722366333008	-10.69886589050293	-88.90753936767581	2.104095697402955	4.372384071350099	-17.93897247314454	-2.104095697402955	-4.372384071350099	-17.93897247314454	1.324456691741944	1.996550917625428	-1.281975269317627	-1.324456691741944	-1.996550917625428	-1.281975269317627	73.35953521728518	0.1932920813560487	2.402182340621949	1.838758180140949e-15	7.26955550877512e-13	104.8349990844727	1.858298778533936	102.208106994629	-4.784458160400392	71.58045959472659	-12.00342273712159	0.1274037212133408	-1.590277359294756e-15	1.842733864804159e-12	102.7320404052735	-4.600358486175539	99.14002227783209	-1.632959842681886	-0.3349827826023103	-1.876218795776368	-0.375602185726166	0.3349827826023103	1.876218795776368	-0.375602185726166	-0.387167274951935	-6.695499420166019	18.43380546569825	0.387167274951935	6.695499420166019	18.43380546569825	
